<svg width="776" height="1299" viewBox="0 0 776 1299" fill="none" xmlns="http://www.w3.org/2000/svg">
<g opacity="0.8">
<g opacity="0.8" filter="url(#filter0_f_123_277)">
<path d="M979.001 649.5C979.001 842.523 827.001 999 639.501 999C452 999 300 842.523 300 649.5C300 456.476 452 300 639.501 300C827.001 300 979.001 456.476 979.001 649.5Z" fill="#7DADED"/>
</g>
</g>
<path d="M334.397 392.182H338.392L345.338 409.142H345.594L352.54 392.182H356.535V414H353.403V398.212H353.2L346.766 413.968H344.166L337.732 398.201H337.529V414H334.397V392.182ZM361.321 414V392.182H375V395.016H364.613V401.663H374.286V404.487H364.613V411.166H375.128V414H361.321ZM379.397 414V392.182H387.174C388.864 392.182 390.267 392.473 391.382 393.055C392.504 393.638 393.342 394.444 393.896 395.474C394.45 396.496 394.727 397.679 394.727 399.021C394.727 400.357 394.447 401.532 393.886 402.548C393.332 403.556 392.494 404.341 391.371 404.902C390.256 405.463 388.854 405.744 387.163 405.744H381.272V402.91H386.865C387.93 402.91 388.797 402.757 389.464 402.452C390.139 402.146 390.633 401.702 390.945 401.12C391.258 400.538 391.414 399.838 391.414 399.021C391.414 398.197 391.254 397.484 390.935 396.88C390.622 396.276 390.129 395.815 389.454 395.495C388.786 395.168 387.909 395.005 386.822 395.005H382.689V414H379.397ZM390.168 404.156L395.558 414H391.808L386.524 404.156H390.168ZM416.343 392.182V414H413.317L402.227 397.999H402.025V414H398.733V392.182H401.78L412.881 408.205H413.083V392.182H416.343Z" fill="#1E40AF"/>
<path d="M374.428 868.182H377.73V882.532C377.73 884.059 377.371 885.412 376.654 886.591C375.937 887.763 374.928 888.686 373.629 889.361C372.329 890.028 370.805 890.362 369.058 890.362C367.318 890.362 365.798 890.028 364.499 889.361C363.199 888.686 362.19 887.763 361.473 886.591C360.756 885.412 360.397 884.059 360.397 882.532V868.182H363.689V882.266C363.689 883.253 363.906 884.13 364.339 884.897C364.779 885.664 365.401 886.268 366.203 886.708C367.006 887.141 367.957 887.358 369.058 887.358C370.166 887.358 371.121 887.141 371.924 886.708C372.734 886.268 373.352 885.664 373.778 884.897C374.211 884.13 374.428 883.253 374.428 882.266V868.182ZM385.808 868.182V890H382.516V868.182H385.808ZM398.656 867.159L391.625 893.281H388.78L395.812 867.159H398.656ZM415.648 868.182H418.951V882.532C418.951 884.059 418.592 885.412 417.875 886.591C417.157 887.763 416.149 888.686 414.849 889.361C413.55 890.028 412.026 890.362 410.279 890.362C408.539 890.362 407.019 890.028 405.719 889.361C404.42 888.686 403.411 887.763 402.694 886.591C401.976 885.412 401.618 884.059 401.618 882.532V868.182H404.91V882.266C404.91 883.253 405.126 884.13 405.559 884.897C406 885.664 406.621 886.268 407.424 886.708C408.226 887.141 409.178 887.358 410.279 887.358C411.387 887.358 412.342 887.141 413.145 886.708C413.954 886.268 414.572 885.664 414.998 884.897C415.432 884.13 415.648 883.253 415.648 882.266V868.182ZM426.027 868.182L431.248 876.715H431.418L436.638 868.182H440.452L433.655 879.091L440.495 890H436.659L431.418 881.584H431.248L426.006 890H422.171L429.127 879.091L422.213 868.182H426.027Z" fill="#1E40AF"/>
<path d="M234.24 530H230.746L238.597 508.182H242.401L250.252 530H246.758L240.589 512.145H240.419L234.24 530ZM234.826 521.456H246.161V524.226H234.826V521.456ZM256.695 508.182V530H253.403V508.182H256.695ZM269.543 507.159L262.512 533.281H259.667L266.698 507.159H269.543ZM272.504 508.182H276.499L283.445 525.142H283.701L290.647 508.182H294.642V530H291.51V514.212H291.308L284.873 529.968H282.274L275.839 514.201H275.637V530H272.504V508.182ZM299.428 530V508.182H302.72V527.166H312.607V530H299.428Z" fill="#1E40AF"/>
<path d="M254.518 764.277H251.195C251.067 763.567 250.829 762.942 250.481 762.402C250.133 761.862 249.707 761.404 249.202 761.028C248.698 760.651 248.134 760.367 247.509 760.175C246.891 759.984 246.234 759.888 245.538 759.888C244.281 759.888 243.155 760.204 242.161 760.836C241.173 761.468 240.392 762.395 239.817 763.616C239.249 764.838 238.964 766.33 238.964 768.091C238.964 769.866 239.249 771.365 239.817 772.587C240.392 773.808 241.177 774.732 242.171 775.357C243.165 775.982 244.284 776.294 245.527 776.294C246.216 776.294 246.869 776.202 247.487 776.017C248.112 775.825 248.677 775.545 249.181 775.175C249.685 774.806 250.112 774.355 250.46 773.822C250.815 773.283 251.06 772.665 251.195 771.969L254.518 771.979C254.341 773.052 253.996 774.039 253.485 774.941C252.981 775.836 252.331 776.61 251.536 777.263C250.747 777.91 249.845 778.411 248.83 778.766C247.814 779.121 246.706 779.298 245.506 779.298C243.616 779.298 241.933 778.851 240.456 777.956C238.979 777.054 237.814 775.765 236.962 774.089C236.116 772.413 235.694 770.413 235.694 768.091C235.694 765.761 236.12 763.762 236.972 762.093C237.825 760.417 238.989 759.131 240.467 758.237C241.944 757.335 243.624 756.884 245.506 756.884C246.663 756.884 247.743 757.05 248.744 757.384C249.753 757.711 250.658 758.194 251.461 758.833C252.263 759.465 252.928 760.239 253.453 761.156C253.979 762.065 254.334 763.105 254.518 764.277ZM261.387 757.182V779H258.202V757.182H261.387ZM272.565 779.33C271.031 779.33 269.692 778.979 268.549 778.276C267.406 777.572 266.518 776.589 265.886 775.325C265.254 774.06 264.938 772.583 264.938 770.893C264.938 769.195 265.254 767.711 265.886 766.44C266.518 765.168 267.406 764.181 268.549 763.478C269.692 762.775 271.031 762.423 272.565 762.423C274.099 762.423 275.438 762.775 276.582 763.478C277.725 764.181 278.613 765.168 279.245 766.44C279.877 767.711 280.193 769.195 280.193 770.893C280.193 772.583 279.877 774.06 279.245 775.325C278.613 776.589 277.725 777.572 276.582 778.276C275.438 778.979 274.099 779.33 272.565 779.33ZM272.576 776.656C273.57 776.656 274.394 776.393 275.048 775.868C275.701 775.342 276.184 774.643 276.496 773.769C276.816 772.896 276.976 771.933 276.976 770.882C276.976 769.838 276.816 768.879 276.496 768.006C276.184 767.125 275.701 766.418 275.048 765.886C274.394 765.353 273.57 765.087 272.576 765.087C271.575 765.087 270.744 765.353 270.083 765.886C269.43 766.418 268.943 767.125 268.624 768.006C268.311 768.879 268.155 769.838 268.155 770.882C268.155 771.933 268.311 772.896 268.624 773.769C268.943 774.643 269.43 775.342 270.083 775.868C270.744 776.393 271.575 776.656 272.576 776.656ZM294.115 772.214V762.636H297.311V779H294.178V776.166H294.008C293.632 777.04 293.028 777.768 292.197 778.35C291.373 778.925 290.347 779.213 289.118 779.213C288.067 779.213 287.137 778.982 286.327 778.521C285.524 778.052 284.892 777.359 284.431 776.443C283.976 775.527 283.749 774.394 283.749 773.045V762.636H286.934V772.661C286.934 773.776 287.243 774.664 287.861 775.325C288.479 775.985 289.281 776.315 290.269 776.315C290.865 776.315 291.458 776.166 292.048 775.868C292.644 775.57 293.138 775.119 293.529 774.515C293.926 773.911 294.122 773.144 294.115 772.214ZM307.716 779.32C306.395 779.32 305.216 778.982 304.179 778.308C303.15 777.626 302.34 776.656 301.75 775.399C301.168 774.135 300.877 772.619 300.877 770.85C300.877 769.082 301.172 767.569 301.761 766.312C302.358 765.055 303.174 764.092 304.211 763.425C305.248 762.757 306.424 762.423 307.738 762.423C308.753 762.423 309.57 762.594 310.188 762.935C310.813 763.268 311.296 763.659 311.637 764.107C311.985 764.554 312.255 764.948 312.446 765.289H312.638V757.182H315.824V779H312.713V776.454H312.446C312.255 776.802 311.978 777.2 311.615 777.647C311.26 778.094 310.77 778.485 310.145 778.819C309.52 779.153 308.711 779.32 307.716 779.32ZM308.419 776.603C309.336 776.603 310.11 776.362 310.742 775.879C311.381 775.388 311.864 774.71 312.191 773.844C312.525 772.977 312.691 771.969 312.691 770.818C312.691 769.682 312.528 768.687 312.201 767.835C311.875 766.983 311.395 766.319 310.763 765.843C310.131 765.367 309.35 765.129 308.419 765.129C307.461 765.129 306.662 765.378 306.022 765.875C305.383 766.372 304.9 767.05 304.574 767.91C304.254 768.769 304.094 769.739 304.094 770.818C304.094 771.912 304.257 772.896 304.584 773.769C304.911 774.643 305.394 775.335 306.033 775.847C306.679 776.351 307.475 776.603 308.419 776.603Z" fill="#1E40AF"/>
<path d="M134.397 628.182H138.392L145.338 645.142H145.594L152.54 628.182H156.535V650H153.403V634.212H153.2L146.766 649.968H144.166L137.732 634.201H137.529V650H134.397V628.182ZM167.958 650.33C166.424 650.33 165.085 649.979 163.942 649.276C162.798 648.572 161.91 647.589 161.278 646.325C160.646 645.06 160.33 643.583 160.33 641.893C160.33 640.195 160.646 638.711 161.278 637.44C161.91 636.168 162.798 635.181 163.942 634.478C165.085 633.775 166.424 633.423 167.958 633.423C169.492 633.423 170.831 633.775 171.974 634.478C173.118 635.181 174.006 636.168 174.638 637.44C175.27 638.711 175.586 640.195 175.586 641.893C175.586 643.583 175.27 645.06 174.638 646.325C174.006 647.589 173.118 648.572 171.974 649.276C170.831 649.979 169.492 650.33 167.958 650.33ZM167.969 647.656C168.963 647.656 169.787 647.393 170.44 646.868C171.094 646.342 171.577 645.643 171.889 644.769C172.209 643.896 172.368 642.933 172.368 641.882C172.368 640.838 172.209 639.879 171.889 639.006C171.577 638.125 171.094 637.418 170.44 636.886C169.787 636.353 168.963 636.087 167.969 636.087C166.967 636.087 166.136 636.353 165.476 636.886C164.822 637.418 164.336 638.125 164.016 639.006C163.704 639.879 163.547 640.838 163.547 641.882C163.547 642.933 163.704 643.896 164.016 644.769C164.336 645.643 164.822 646.342 165.476 646.868C166.136 647.393 166.967 647.656 167.969 647.656ZM179.397 650V628.182H182.582V636.289H182.774C182.959 635.948 183.225 635.554 183.573 635.107C183.921 634.659 184.404 634.268 185.022 633.935C185.64 633.594 186.457 633.423 187.472 633.423C188.793 633.423 189.972 633.757 191.009 634.425C192.046 635.092 192.859 636.055 193.449 637.312C194.045 638.569 194.344 640.082 194.344 641.85C194.344 643.619 194.049 645.135 193.46 646.399C192.87 647.656 192.06 648.626 191.031 649.308C190.001 649.982 188.825 650.32 187.504 650.32C186.51 650.32 185.697 650.153 185.065 649.819C184.44 649.485 183.95 649.094 183.594 648.647C183.239 648.2 182.966 647.802 182.774 647.454H182.508V650H179.397ZM182.518 641.818C182.518 642.969 182.685 643.977 183.019 644.844C183.353 645.71 183.836 646.388 184.468 646.879C185.1 647.362 185.874 647.603 186.79 647.603C187.742 647.603 188.538 647.351 189.177 646.847C189.816 646.335 190.299 645.643 190.626 644.769C190.96 643.896 191.126 642.912 191.126 641.818C191.126 640.739 190.963 639.769 190.636 638.91C190.317 638.05 189.834 637.372 189.188 636.875C188.548 636.378 187.749 636.129 186.79 636.129C185.867 636.129 185.086 636.367 184.447 636.843C183.815 637.319 183.335 637.983 183.009 638.835C182.682 639.687 182.518 640.682 182.518 641.818ZM197.921 650V633.636H201.106V650H197.921ZM199.529 631.112C198.975 631.112 198.499 630.927 198.102 630.558C197.711 630.181 197.516 629.734 197.516 629.215C197.516 628.69 197.711 628.242 198.102 627.873C198.499 627.496 198.975 627.308 199.529 627.308C200.083 627.308 200.556 627.496 200.946 627.873C201.344 628.242 201.543 628.69 201.543 629.215C201.543 629.734 201.344 630.181 200.946 630.558C200.556 630.927 200.083 631.112 199.529 631.112ZM208.577 628.182V650H205.391V628.182H208.577ZM219.915 650.33C218.302 650.33 216.914 649.986 215.749 649.297C214.591 648.601 213.697 647.624 213.064 646.367C212.439 645.103 212.127 643.622 212.127 641.925C212.127 640.249 212.439 638.771 213.064 637.493C213.697 636.214 214.577 635.217 215.706 634.499C216.843 633.782 218.171 633.423 219.691 633.423C220.614 633.423 221.509 633.576 222.376 633.881C223.242 634.187 224.02 634.666 224.709 635.32C225.398 635.973 225.941 636.822 226.339 637.866C226.736 638.903 226.935 640.163 226.935 641.648V642.777H213.927V640.391H223.814C223.814 639.553 223.643 638.81 223.302 638.164C222.961 637.511 222.482 636.996 221.864 636.619C221.253 636.243 220.536 636.055 219.712 636.055C218.817 636.055 218.036 636.275 217.368 636.715C216.708 637.148 216.197 637.717 215.834 638.42C215.479 639.116 215.302 639.872 215.302 640.689V642.553C215.302 643.647 215.493 644.577 215.877 645.344C216.268 646.112 216.811 646.697 217.507 647.102C218.203 647.5 219.016 647.699 219.947 647.699C220.55 647.699 221.101 647.614 221.598 647.443C222.095 647.266 222.525 647.003 222.887 646.655C223.249 646.307 223.526 645.877 223.718 645.366L226.733 645.909C226.491 646.797 226.058 647.575 225.433 648.242C224.815 648.903 224.037 649.418 223.1 649.787C222.17 650.149 221.108 650.33 219.915 650.33ZM240.508 650H237.013L244.865 628.182H248.668L256.52 650H253.025L246.857 632.145H246.687L240.508 650ZM241.094 641.456H252.429V644.226H241.094V641.456ZM259.415 656.136V633.636H262.526V636.289H262.792C262.977 635.948 263.243 635.554 263.591 635.107C263.939 634.659 264.422 634.268 265.04 633.935C265.658 633.594 266.474 633.423 267.49 633.423C268.811 633.423 269.99 633.757 271.027 634.425C272.064 635.092 272.877 636.055 273.467 637.312C274.063 638.569 274.362 640.082 274.362 641.85C274.362 643.619 274.067 645.135 273.477 646.399C272.888 647.656 272.078 648.626 271.048 649.308C270.018 649.982 268.843 650.32 267.522 650.32C266.528 650.32 265.714 650.153 265.082 649.819C264.457 649.485 263.967 649.094 263.612 648.647C263.257 648.2 262.984 647.802 262.792 647.454H262.6V656.136H259.415ZM262.536 641.818C262.536 642.969 262.703 643.977 263.037 644.844C263.371 645.71 263.854 646.388 264.486 646.879C265.118 647.362 265.892 647.603 266.808 647.603C267.76 647.603 268.555 647.351 269.195 646.847C269.834 646.335 270.317 645.643 270.643 644.769C270.977 643.896 271.144 642.912 271.144 641.818C271.144 640.739 270.981 639.769 270.654 638.91C270.335 638.05 269.852 637.372 269.205 636.875C268.566 636.378 267.767 636.129 266.808 636.129C265.885 636.129 265.104 636.367 264.464 636.843C263.832 637.319 263.353 637.983 263.026 638.835C262.7 639.687 262.536 640.682 262.536 641.818ZM277.93 656.136V633.636H281.041V636.289H281.308C281.492 635.948 281.759 635.554 282.107 635.107C282.455 634.659 282.938 634.268 283.555 633.935C284.173 633.594 284.99 633.423 286.006 633.423C287.327 633.423 288.506 633.757 289.543 634.425C290.58 635.092 291.393 636.055 291.982 637.312C292.579 638.569 292.877 640.082 292.877 641.85C292.877 643.619 292.582 645.135 291.993 646.399C291.403 647.656 290.594 648.626 289.564 649.308C288.534 649.982 287.359 650.32 286.038 650.32C285.043 650.32 284.23 650.153 283.598 649.819C282.973 649.485 282.483 649.094 282.128 648.647C281.773 648.2 281.499 647.802 281.308 647.454H281.116V656.136H277.93ZM281.052 641.818C281.052 642.969 281.219 643.977 281.553 644.844C281.886 645.71 282.369 646.388 283.001 646.879C283.634 647.362 284.408 647.603 285.324 647.603C286.276 647.603 287.071 647.351 287.71 646.847C288.349 646.335 288.832 645.643 289.159 644.769C289.493 643.896 289.66 642.912 289.66 641.818C289.66 640.739 289.496 639.769 289.17 638.91C288.85 638.05 288.367 637.372 287.721 636.875C287.082 636.378 286.283 636.129 285.324 636.129C284.401 636.129 283.619 636.367 282.98 636.843C282.348 637.319 281.869 637.983 281.542 638.835C281.215 639.687 281.052 640.682 281.052 641.818ZM308.708 637.631L305.821 638.143C305.7 637.773 305.509 637.422 305.246 637.088C304.99 636.754 304.642 636.481 304.202 636.268C303.761 636.055 303.211 635.948 302.55 635.948C301.648 635.948 300.896 636.151 300.292 636.555C299.688 636.953 299.386 637.468 299.386 638.1C299.386 638.647 299.589 639.087 299.994 639.421C300.398 639.755 301.052 640.028 301.954 640.241L304.553 640.838C306.059 641.186 307.181 641.722 307.92 642.447C308.658 643.171 309.028 644.112 309.028 645.27C309.028 646.25 308.744 647.124 308.175 647.891C307.614 648.651 306.83 649.247 305.821 649.68C304.82 650.114 303.658 650.33 302.337 650.33C300.505 650.33 299.01 649.94 297.852 649.158C296.695 648.37 295.984 647.251 295.722 645.803L298.8 645.334C298.992 646.136 299.386 646.744 299.983 647.156C300.58 647.56 301.357 647.763 302.316 647.763C303.36 647.763 304.195 647.546 304.82 647.113C305.445 646.673 305.757 646.136 305.757 645.504C305.757 644.993 305.565 644.563 305.182 644.215C304.805 643.867 304.227 643.604 303.445 643.427L300.675 642.82C299.148 642.472 298.019 641.918 297.288 641.158C296.563 640.398 296.201 639.435 296.201 638.271C296.201 637.305 296.471 636.46 297.011 635.735C297.55 635.011 298.296 634.446 299.248 634.041C300.2 633.629 301.29 633.423 302.518 633.423C304.287 633.423 305.679 633.807 306.695 634.574C307.71 635.334 308.381 636.353 308.708 637.631Z" fill="#1E40AF"/>
<g opacity="0.7">
<path d="M570.559 364.492C569.862 364.492 569.23 364.027 569.041 363.337C568.816 362.524 569.266 361.689 570.058 361.421L721.108 311.119C721.471 311.003 721.849 311.01 722.183 311.148L750.601 322.235C751.247 322.489 751.654 323.135 751.596 323.825C751.545 324.515 751.044 325.096 750.361 325.241L570.893 364.456C570.784 364.477 570.668 364.492 570.559 364.492ZM721.566 314.292L599.137 355.06L744.604 323.273L721.566 314.292Z" fill="#021D74"/>
<path d="M911.94 346.486C911.875 346.486 911.802 346.478 911.737 346.471L749.825 325.263L721.036 314.081C720.281 313.791 719.874 312.97 720.092 312.193C720.303 311.417 721.08 310.93 721.871 311.061L912.202 343.356C913.051 343.501 913.625 344.293 913.501 345.142C913.378 345.926 912.71 346.486 911.94 346.486ZM736.523 316.746L750.601 322.235L830.2 332.639L736.523 316.746Z" fill="#021D74"/>
<path d="M408.646 669.192C408.464 669.192 408.283 669.163 408.109 669.097C407.375 668.829 406.947 668.066 407.099 667.304L443.156 487.443C443.265 486.906 443.65 486.463 444.165 486.274C444.673 486.078 445.261 486.187 445.69 486.528L489.058 521.488C489.653 521.967 489.82 522.803 489.45 523.47L410.025 668.371C409.742 668.887 409.205 669.192 408.646 669.192ZM445.733 490.609L412.211 657.829L486.052 523.115L445.733 490.609Z" fill="#021D74"/>
<path d="M488.07 524.292C487.714 524.292 487.366 524.169 487.083 523.943L443.715 488.983C443.366 488.7 443.156 488.286 443.127 487.836C443.105 487.393 443.272 486.95 443.591 486.638L569.447 361.799C569.992 361.247 570.871 361.189 571.488 361.646C572.112 362.103 572.315 362.953 571.96 363.643L489.471 523.442C489.254 523.856 488.862 524.161 488.397 524.255C488.288 524.277 488.179 524.292 488.07 524.292ZM447.062 487.633L487.555 520.277L564.576 371.063L447.062 487.633Z" fill="#021D74"/>
<path d="M588.129 955.872C587.715 955.872 587.315 955.712 587.025 955.414L473.476 843.201C472.924 842.664 472.851 841.814 473.287 841.183C473.73 840.551 474.543 840.348 475.247 840.653L617.222 906.739C617.629 906.928 617.933 907.284 618.064 907.719C618.195 908.148 618.13 908.612 617.897 908.997L589.472 955.124C589.218 955.531 588.796 955.799 588.317 955.857C588.252 955.865 588.194 955.872 588.129 955.872ZM482.138 847.34L587.824 951.784L614.281 908.852L482.138 847.34Z" fill="#021D74"/>
<path d="M778.431 988.181C778.344 988.181 778.257 988.174 778.17 988.159L587.868 955.85C587.352 955.762 586.91 955.421 586.692 954.942C586.481 954.47 586.51 953.918 586.786 953.468L615.212 907.341C615.633 906.651 616.504 906.39 617.245 906.753L779.121 985.19C779.825 985.531 780.173 986.337 779.934 987.085C779.716 987.746 779.106 988.181 778.431 988.181ZM590.692 953.134L767.794 983.2L617.15 910.209L590.692 953.134Z" fill="#021D74"/>
<path d="M878.518 416.747C878.191 416.747 877.872 416.645 877.603 416.456L749.111 324.987C748.523 324.566 748.298 323.796 748.56 323.128C748.821 322.46 749.554 322.09 750.229 322.141L912.142 343.349C912.643 343.414 913.078 343.712 913.325 344.155C913.565 344.598 913.579 345.128 913.362 345.585L879.941 415.846C879.738 416.268 879.367 416.58 878.917 416.696C878.786 416.732 878.649 416.747 878.518 416.747ZM756.089 326.083L877.901 412.797L909.586 346.188L756.089 326.083Z" fill="#021D74"/>
<path d="M505.642 732.556C505.345 732.556 505.04 732.469 504.778 732.302L407.783 668.938C407.094 668.488 406.868 667.58 407.268 666.862L486.692 521.961C487.026 521.351 487.745 521.039 488.398 521.177C489.081 521.322 489.582 521.888 489.64 522.585L507.211 730.85C507.261 731.445 506.964 732.026 506.448 732.331C506.201 732.483 505.918 732.556 505.642 732.556ZM410.731 667.094L503.798 727.895L486.939 528.053L410.731 667.094Z" fill="#021D74"/>
<path d="M474.579 843.658C473.926 843.658 473.338 843.252 473.106 842.642L407.172 668.176C406.932 667.537 407.128 666.818 407.658 666.39C408.195 665.954 408.929 665.932 409.51 666.295L506.505 729.659C507.078 730.036 507.339 730.741 507.158 731.401L476.097 842.504C475.915 843.164 475.327 843.629 474.652 843.658H474.579ZM411.826 671.574L474.354 837.036L503.811 731.67L411.826 671.574Z" fill="#021D74"/>
<path d="M616.554 909.744C616.329 909.744 616.104 909.693 615.886 909.599L473.912 843.512C473.215 843.186 472.852 842.402 473.062 841.661L504.123 730.559C504.29 729.956 504.798 729.513 505.416 729.419C506.026 729.375 506.65 729.622 506.977 730.145L617.89 907.333C618.261 907.922 618.195 908.691 617.738 909.214C617.426 909.555 616.997 909.744 616.554 909.744ZM476.46 841.218L612.394 904.495L506.2 734.835L476.46 841.218Z" fill="#021D74"/>
<path d="M778.431 988.181C778.199 988.181 777.959 988.13 777.741 988.021L615.865 909.585C615.226 909.273 614.871 908.568 615.009 907.864C615.147 907.16 615.742 906.644 616.461 906.593L798.296 895.448C798.797 895.448 799.276 895.63 799.589 896C799.908 896.378 800.039 896.886 799.93 897.365L779.97 986.947C779.861 987.419 779.549 987.811 779.114 988.021C778.903 988.13 778.663 988.181 778.431 988.181ZM622.654 909.374L777.328 984.319L796.401 898.723L622.654 909.374Z" fill="#021D74"/>
<path d="M667.539 427.871C666.951 427.871 666.406 427.544 666.137 427.014C665.854 426.463 665.92 425.795 666.312 425.308L748.8 322.715C749.33 322.062 750.274 321.938 750.942 322.418L879.433 413.887C879.978 414.279 880.218 414.969 880.029 415.615C879.847 416.254 879.274 416.712 878.598 416.748L667.619 427.871L667.539 427.871ZM750.325 325.845L670.973 424.539L873.93 413.836L750.325 325.845Z" fill="#021D74"/>
<path d="M488.069 524.292C487.663 524.292 487.263 524.139 486.966 523.842C486.472 523.355 486.356 522.607 486.668 521.99L569.156 362.191C569.359 361.799 569.722 361.508 570.158 361.392C570.594 361.269 571.051 361.356 571.421 361.595L668.402 424.974C668.867 425.279 669.135 425.809 669.113 426.36C669.084 426.919 668.772 427.42 668.286 427.682L488.817 524.103C488.577 524.226 488.323 524.292 488.069 524.292ZM571.16 365.189L491.801 518.926L664.459 426.164L571.16 365.189Z" fill="#021D74"/>
<path d="M667.539 427.87C667.241 427.87 666.943 427.783 666.675 427.616L569.694 364.238C569.164 363.889 568.896 363.258 569.012 362.633C569.121 362.009 569.6 361.515 570.224 361.377L749.693 322.162C750.346 322.032 751.014 322.308 751.363 322.874C751.719 323.44 751.675 324.166 751.254 324.689L668.766 427.282C668.454 427.667 668.003 427.87 667.539 427.87ZM574.566 363.65L667.205 424.196L746.005 326.192L574.566 363.65Z" fill="#021D74"/>
<path d="M505.642 732.555C505.496 732.555 505.344 732.534 505.199 732.49C504.574 732.309 504.124 731.757 504.073 731.111L486.502 522.846C486.452 522.258 486.735 521.692 487.236 521.38C487.737 521.06 488.368 521.053 488.884 521.365L610.485 594.233C610.877 594.465 611.146 594.85 611.226 595.286C611.313 595.729 611.204 596.186 610.928 596.542L506.89 731.938C506.585 732.338 506.121 732.555 505.642 732.555ZM489.9 525.649L506.869 726.798L607.356 596.026L489.9 525.649Z" fill="#021D74"/>
<path d="M609.679 597.159C609.396 597.159 609.12 597.086 608.866 596.934L487.265 524.066C486.778 523.776 486.481 523.246 486.495 522.68C486.51 522.113 486.829 521.598 487.323 521.329L666.791 424.908C667.372 424.61 668.062 424.683 668.556 425.097C669.049 425.51 669.238 426.193 669.028 426.803L611.168 596.092C611.015 596.542 610.667 596.898 610.224 597.065C610.042 597.13 609.861 597.159 609.679 597.159ZM491.258 522.788L608.815 593.231L664.751 429.583L491.258 522.788Z" fill="#021D74"/>
<path d="M798.39 898.599C797.904 898.599 797.439 898.374 797.142 897.982L694.716 764.226C694.36 763.762 694.287 763.137 694.534 762.607C694.781 762.077 695.297 761.729 695.885 761.692L906.835 750.569C907.286 750.54 908.019 750.867 908.302 751.404C908.593 751.941 908.542 752.602 908.179 753.089L799.654 897.967C799.356 898.359 798.884 898.599 798.39 898.599ZM699.036 764.684L798.376 894.417L903.634 753.894L699.036 764.684Z" fill="#021D74"/>
<path d="M616.554 909.744C616.017 909.744 615.516 909.469 615.226 909.011C614.914 908.525 614.899 907.915 615.175 907.414L694.585 762.513C694.839 762.041 695.311 761.736 695.848 761.7C696.371 761.562 696.893 761.889 697.213 762.31L799.639 896.065C799.995 896.53 800.067 897.147 799.82 897.677C799.581 898.207 799.065 898.563 798.484 898.599L616.649 909.744H616.554ZM696.182 766.143L619.306 906.419L795.341 895.63L696.182 766.143Z" fill="#021D74"/>
<path d="M616.554 909.745C616.009 909.745 615.509 909.469 615.218 909.004L504.304 731.815C503.978 731.293 503.985 730.617 504.333 730.102C504.675 729.594 505.299 729.325 505.902 729.427L696.225 761.715C696.726 761.802 697.162 762.121 697.38 762.579C697.605 763.043 697.59 763.581 697.343 764.024L617.934 908.924C617.665 909.418 617.157 909.73 616.598 909.745H616.554ZM508.835 733.122L616.467 905.054L693.517 764.452L508.835 733.122Z" fill="#021D74"/>
<path d="M695.964 764.844C695.877 764.844 695.79 764.836 695.703 764.822L505.38 732.534C504.835 732.439 504.378 732.069 504.174 731.553C503.971 731.038 504.058 730.457 504.392 730.021L608.43 594.625C608.757 594.197 609.301 593.928 609.817 594.015C610.354 594.066 610.833 594.385 611.08 594.865L697.366 762.549C697.634 763.079 697.591 763.718 697.235 764.197C696.937 764.604 696.458 764.844 695.964 764.844ZM508.487 729.862L693.125 761.191L609.417 598.509L508.487 729.862Z" fill="#021D74"/>
<path d="M695.965 764.844C695.377 764.837 694.832 764.51 694.564 763.987L608.278 596.303C608.039 595.845 608.046 595.294 608.293 594.836C608.54 594.379 608.99 594.074 609.505 594.016L795.857 573.388C796.431 573.345 797.011 573.592 797.338 574.071C797.665 574.557 797.694 575.182 797.425 575.697L697.359 764.009C697.083 764.525 696.546 764.844 695.965 764.844ZM612.126 596.898L695.987 759.871L793.243 576.852L612.126 596.898Z" fill="#021D74"/>
<path d="M695.964 764.844C695.426 764.844 694.925 764.568 694.635 764.118C694.33 763.639 694.308 763.029 694.57 762.528L794.636 574.216C794.904 573.722 795.413 573.403 795.972 573.381C796.589 573.454 797.068 573.642 797.366 574.122L908.25 751.31C908.548 751.782 908.57 752.378 908.309 752.871C908.054 753.365 907.553 753.692 906.994 753.721L696.044 764.844H695.964ZM796.139 578.1L698.657 761.548L904.163 750.715L796.139 578.1Z" fill="#021D74"/>
<path d="M796.03 576.532C795.573 576.532 795.137 576.336 794.84 575.988L666.348 427.326C665.956 426.869 665.854 426.23 666.086 425.678C666.326 425.126 666.856 424.756 667.459 424.719L878.439 413.596C878.867 413.632 879.535 413.843 879.84 414.315C880.145 414.794 880.174 415.39 879.92 415.898L797.432 575.683C797.192 576.148 796.735 576.46 796.219 576.518C796.154 576.525 796.088 576.532 796.03 576.532ZM670.835 427.696L795.696 572.161L875.861 416.893L670.835 427.696Z" fill="#021D74"/>
<path d="M609.679 597.16C609.207 597.16 608.75 596.942 608.452 596.572C608.111 596.151 608.016 595.585 608.191 595.076L666.051 425.787C666.232 425.25 666.682 424.858 667.241 424.749C667.764 424.633 668.36 424.836 668.73 425.264L797.221 573.926C797.606 574.369 797.708 574.986 797.497 575.531C797.287 576.075 796.786 576.46 796.205 576.526L609.853 597.153C609.795 597.16 609.737 597.16 609.679 597.16ZM668.142 429.403L611.973 593.748L792.88 573.723L668.142 429.403Z" fill="#021D74"/>
</g>
<defs>
<filter id="filter0_f_123_277" x="0" y="0" width="1279" height="1299" filterUnits="userSpaceOnUse" color-interpolation-filters="sRGB">
<feFlood flood-opacity="0" result="BackgroundImageFix"/>
<feBlend mode="normal" in="SourceGraphic" in2="BackgroundImageFix" result="shape"/>
<feGaussianBlur stdDeviation="150" result="effect1_foregroundBlur_123_277"/>
</filter>
</defs>
</svg>
